<svg width="44" height="44" fill="none" xmlns="http://www.w3.org/2000/svg"><path d="M44 21.9999c0 6.0752-2.4624 11.5752-6.4436 15.5564-3.9813 3.9812-9.4813 6.4436-15.5564 6.4436-6.0751 0-11.5751-2.4624-15.5564-6.4436C2.4625 33.5751 0 28.0751 0 21.9999c0-6.0751 2.4624-11.5751 6.4436-15.5563C10.425 2.4624 15.925-.0001 22-.0001c6.0751 0 11.5751 2.4625 15.5564 6.4437C41.5376 10.4248 44 15.9248 44 21.9999z" fill="#fff" fill-opacity=".1"/><g clip-path="url(#clip0)"><path d="M25.3308 15.3208h1.8258v-3.18c-.315-.0433-1.3983-.1408-2.66-.1408-2.6325 0-4.4358 1.6558-4.4358 4.6992V19.5h-2.905v3.555h2.905V32h3.5616v-8.9442h2.7875l.4425-3.555h-3.2308v-2.4491c.0008-1.0275.2775-1.7309 1.7092-1.7309z" fill="#fff"/></g><defs><clipPath id="clip0"><path fill="#fff" transform="translate(12 12)" d="M0 0h20v20H0z"/></clipPath></defs></svg>