<svg width="59" height="47" fill="none" xmlns="http://www.w3.org/2000/svg"><path d="M4.4876 39.2777c.23.2857.3524.6435.346 1.0107a1.6047 1.6047 0 01-.1232.6996 1.5986 1.5986 0 01-.4129.577 2.3183 2.3183 0 01-1.5582.4662H0v-6.405h2.6832a2.2844 2.2844 0 011.4866.4256c.1732.1456.3105.3296.4008.5376.0903.208.1313.4342.1196.6608a1.487 1.487 0 01-.3116.9793 1.4542 1.4542 0 01-.8165.5006c.3634.0666.6914.2607.9255.5476zm-3.213-.9668h1.1469a1.0848 1.0848 0 00.7292-.2128.763.763 0 00.2462-.6258.788.788 0 00-.243-.6258 1.1065 1.1065 0 00-.7511-.2159H1.2746v1.6803zm1.9883 2.4562a.7972.7972 0 00.2711-.6508.81.81 0 00-.2773-.6571 1.1809 1.1809 0 00-.7792-.2315H1.2746v1.7615h1.2185a1.2056 1.2056 0 00.7698-.2221zM9.9725 42.0312l-1.4928-2.5031h-.561v2.5031h-1.284v-6.4049h2.4309a2.39 2.39 0 011.6922.5444c.3398.3476.5447.8057.5779 1.2916a2.0488 2.0488 0 01-.3972 1.3586 1.97 1.97 0 01-1.1593.6508l1.5894 2.5595H9.9724zm-2.0538-3.3761H8.969c.7292 0 1.0938-.3233 1.0938-.97a.9558.9558 0 00-.268-.7196 1.134 1.134 0 00-.8258-.2597H7.9063l.0124 1.9493zM16.9905 40.7421H14.432l-.4519 1.2891h-1.3463l2.3498-6.333h1.4553l2.3405 6.333h-1.3463l-.4426-1.2891zm-.3428-.97l-.9349-2.7034-.9349 2.7034h1.8698zM25.7759 42.0312h-1.2746l-2.8577-4.3555v4.3555h-1.2715v-6.405h1.2715l2.8577 4.3806v-4.3806h1.2746v6.405zM33.0497 40.4981a2.7565 2.7565 0 01-1.1531 1.1295 3.7426 3.7426 0 01-1.7919.4037h-2.2688v-6.405h2.2688a3.8157 3.8157 0 011.7919.3943 2.7096 2.7096 0 011.1531 1.117 3.7351 3.7351 0 01.3991 1.6802 3.7352 3.7352 0 01-.3991 1.6803zm-1.4585-.1533a2.3524 2.3524 0 00.5638-1.5285c0-.5608-.2-1.103-.5638-1.5285a2.2103 2.2103 0 00-1.5956-.5445h-.885v4.1459h.885a2.2102 2.2102 0 001.5956-.5444zM17.7886 0s16.4515 6.236 16.1025 15.2599v15.263s-16.4391-6.2391-16.0963-15.263L17.7886 0zM48.5474 26.9497a22.4851 22.4851 0 0110.4524-3.8674v-4.7779c-4.3226 1.6727-7.9897 4.7057-10.4524 8.6453z" fill="#AFB1B8"/><path d="M46.6809 28.389c2.543-5.1413 6.9517-9.1086 12.3192-11.0859V3.5357s-23.4293 8.8831-22.9338 21.7337V47s1.044-.3974 2.6864-1.1421c0-.6946 0-1.3955.0748-2.0995.4849-5.9659 3.3097-11.4942 7.8534-15.3694z" fill="#AFB1B8"/><path d="M44.4528 36.4616c.123-1.507.3976-2.9978.8196-4.4493-2.8292 3.3466-4.5425 7.4993-4.899 11.8743-.0343.4131-.053.8261-.0624 1.2516a67.9759 67.9759 0 004.5064-2.3842 22.5742 22.5742 0 01-.3646-6.2924zM45.3846 36.5399a21.5806 21.5806 0 00.2898 5.6978c6.4011-3.8455 13.5938-9.7873 13.3164-16.9683v-.6258c-4.5733.5138-8.8521 2.5211-12.1789 5.7135a21.4908 21.4908 0 00-1.4273 6.1828z" fill="#AFB1B8"/></svg>