<svg width="41" height="43" fill="none" xmlns="http://www.w3.org/2000/svg"><path d="M6.3457 41.7946a.1179.1179 0 01.0434.0095.1129.1129 0 01.0363.0248l.2058.2157a1.6844 1.6844 0 01-.5788.4093 2.0742 2.0742 0 01-.8205.147 2.011 2.011 0 01-.7716-.1372 1.6718 1.6718 0 01-.5813-.3873 1.7452 1.7452 0 01-.3756-.598 2.1634 2.1634 0 01-.1311-.7671 2.0167 2.0167 0 01.1414-.7696 1.7869 1.7869 0 01.3987-.5981 1.8354 1.8354 0 01.6173-.3897 2.2284 2.2284 0 01.7948-.1372 1.9682 1.9682 0 01.7382.125c.2037.0842.3908.2011.553.3456l-.1723.2304a.173.173 0 01-.0437.0416.1093.1093 0 01-.0695.0172.1571.1571 0 01-.0746-.0245l-.0926-.0613-.1286-.0784a1.4003 1.4003 0 00-.1723-.076 1.676 1.676 0 00-.234-.0613 1.6428 1.6428 0 00-.3061-.0245 1.5322 1.5322 0 00-.571.1029 1.2903 1.2903 0 00-.4476.2893 1.3422 1.3422 0 00-.2907.4607 1.6826 1.6826 0 00-.1054.6079c-.0031.2101.0326.4192.1054.6176.0628.1691.1598.3248.2855.4583.1178.1245.2639.2217.427.2843a1.408 1.408 0 00.5299.0981c.105.0015.2099-.005.3138-.0196a1.1667 1.1667 0 00.4758-.1642c.072-.0453.14-.0961.2032-.152a.153.153 0 01.0978-.0392zM12.2871 40.7108a2.0289 2.0289 0 01-.1389.7622 1.6555 1.6555 0 01-.3874.5918 1.7535 1.7535 0 01-.608.3885 2.296 2.296 0 01-1.5638 0 1.777 1.777 0 01-.6045-.3897 1.7408 1.7408 0 01-.391-.5979 2.1666 2.1666 0 010-1.5269 1.8026 1.8026 0 01.391-.6004 1.78 1.78 0 01.6045-.3749 2.2577 2.2577 0 011.5638 0c.2285.0884.4352.2211.607.3896a1.757 1.757 0 01.3884.5906c.0953.2455.1424.5055.1389.7671zm-.5401 0a1.7586 1.7586 0 00-.0978-.6127 1.2767 1.2767 0 00-.2752-.4582 1.2078 1.2078 0 00-.4347-.2892 1.6577 1.6577 0 00-1.1368 0 1.2077 1.2077 0 00-.4347.2892 1.2473 1.2473 0 00-.2778.4582 1.9614 1.9614 0 000 1.2254c.058.1696.1526.3257.2778.4583a1.203 1.203 0 00.4346.2867 1.6983 1.6983 0 001.1369 0 1.2022 1.2022 0 00.4347-.2867 1.2973 1.2973 0 00.2752-.4583 1.744 1.744 0 00.0978-.6127zM16.3408 41.3532l.054.1372c.0206-.049.0386-.0931.0591-.1372a1.3197 1.3197 0 01.0669-.1348l1.3144-2.2764c.0257-.0392.0488-.0637.0746-.0711a.3224.3224 0 01.108-.0122h.3884v3.7026h-.4604v-2.7225-.1151a1.0847 1.0847 0 010-.1275l-1.3221 2.3084a.2024.2024 0 01-.0774.0842.2157.2157 0 01-.1129.0309h-.0746a.2123.2123 0 01-.1132-.0305.2004.2004 0 01-.0772-.0846l-1.3606-2.3231v2.9724h-.445v-3.6952h.3884a.3224.3224 0 01.108.0122.1507.1507 0 01.072.0711l1.3427 2.2789a.8049.8049 0 01.0669.1323zM21.2869 41.1692v1.387h-.5144v-3.6977h1.1471a2.249 2.249 0 01.6405.0809 1.226 1.226 0 01.4527.2303.9484.9484 0 01.2572.3627c.0607.1508.0904.3114.0875.4729a1.1464 1.1464 0 01-.0952.4729 1.012 1.012 0 01-.2778.37 1.2708 1.2708 0 01-.4553.2451 1.9945 1.9945 0 01-.6199.0857l-.6224-.0098zm0-.3969h.6224a1.3224 1.3224 0 00.3987-.0564.843.843 0 00.2881-.1593.6511.6511 0 00.1749-.245.7676.7676 0 00.0617-.3112.6774.6774 0 00-.0516-.3012.707.707 0 00-.1798-.2526c-.1966-.1462-.4434-.217-.692-.1985h-.6224v1.5242zM28.2007 42.5612h-.4064a.181.181 0 01-.1131-.0344.226.226 0 01-.0669-.0857l-.3498-.8945h-1.7568l-.3627.8945a.1991.1991 0 01-.0643.0833.1809.1809 0 01-.1157.0368h-.4064l1.5433-3.703h.535l1.5638 3.703zm-2.5464-1.3749h1.4507l-.6122-1.5072a2.614 2.614 0 01-.1157-.348l-.0592.1936a1.8424 1.8424 0 01-.0565.1569l-.6071 1.5047zM30.4233 38.8754a.2227.2227 0 01.0772.0662l2.2506 2.7913v-.1299V38.8582h.4604v3.703h-.2572a.2302.2302 0 01-.1054-.0221.2829.2829 0 01-.0823-.0686l-2.2481-2.7888a1.083 1.083 0 010 .1274v2.7521h-.4604v-3.703h.2727a.2248.2248 0 01.0925.0172zM37.0028 41.0884v1.4704h-.5145v-1.4704l-1.4224-2.23h.4604a.1726.1726 0 01.1106.0318.3166.3166 0 01.0695.0833l.89 1.4386a2.296 2.296 0 01.0926.1715c.0257.0539.0463.1054.0643.1569l.0668-.1593a1.3138 1.3138 0 01.0875-.1691l.8771-1.4484a.3727.3727 0 01.0669-.0784.1612.1612 0 01.1106-.0367h.4655l-1.4249 2.2398zM16.0859 32.6443c.2238.0269.4502.049.6791.0686 3.4706-1.4792 6.4066-3.9002 8.441-6.9603 2.0344-3.0602 3.077-6.6237 2.9973-10.2453l-3.8248-3.644c.7777 3.8558.414 7.8417-1.0506 11.5118-1.4645 3.6701-3.972 6.8795-7.242 9.2692z" fill="#AFB1B8"/><path d="M14.7202 32.4748l.1029.0196c3.4942-2.3812 6.1583-5.7064 7.6477-9.5456 1.4893-3.8391 1.7355-8.0157.7066-11.9896L17.7296 5.769c2.2035 4.2663 3.0904 9.0408 2.5577 13.7684-.5327 4.7276-2.4633 9.214-5.5671 12.9374zM33.1959 19.7861c-.9255 3.9793-3.1734 7.568-6.4098 10.2335a20.213 20.213 0 01-3.0454 2.0829c2.6354-.7379 5.0576-2.0427 7.08-3.8135 2.0225-1.7709 3.591-3.9606 4.5847-6.4003l-2.2095-2.1026z" fill="#AFB1B8"/><path d="M32.3292 19.2002l-3.1457-2.9971c-.0602 3.417-1.0798 6.7563-2.9529 9.6708-1.8731 2.9146-4.5313 5.2979-7.6984 6.9025h.0155a18.7608 18.7608 0 002.1117-.1201c2.9598-1.151 5.5745-2.9821 7.6108-5.3301 2.0362-2.348 3.4307-5.1397 4.059-8.126zM15.1757 3.5803L11.4229 0C8.0681 1.2351 5.1828 3.4064 3.1446 6.2297 1.1065 9.053.0105 12.3968 0 15.8234c.0126 3.7863 1.3502 7.4604 3.8012 10.4409 2.451 2.9805 5.8752 5.0971 9.7309 6.0148 3.4419-3.9953 5.4571-8.9321 5.7526-14.0931.2956-5.161-1.1438-10.2774-4.109-14.6057zM41.0002 18.649c-.0135-4.4922-1.8926-8.7968-5.2267-11.9733-3.3341-3.1765-7.8522-4.9667-12.5673-4.9797-2.1788-.0021-4.3391.381-6.3712 1.1298l22.9769 21.8908c.7868-1.9351 1.1897-3.9925 1.1883-6.0676z" fill="#AFB1B8"/></svg>