<svg width="89" height="46" fill="none" xmlns="http://www.w3.org/2000/svg"><path d="M44.7404 21.3533c-.418-.6101-.6179-1.3313-.5705-2.0571v-2.9827c0-.9143.1891-1.6091.5673-2.0844.3782-.4754 1.0277-.7121 1.9486-.71.8654 0 1.4796.2022 1.8429.6068.3962.5162.5889 1.1474.5448 1.7841v.7009h-1.548v-.71a3.9613 3.9613 0 00-.0448-.6948.6891.6891 0 00-.2212-.4127.836.836 0 00-.5608-.1608c-.2121-.015-.4225.0456-.5898.1699-.1348.1218-.2247.2813-.2564.4551a3.7847 3.7847 0 00-.0609.7374v3.6197a1.9988 1.9988 0 00.1988 1.0165.734.734 0 00.3089.2463.781.781 0 00.3994.0571c.1983.0155.395-.0434.548-.1638.1261-.1185.2073-.2732.2308-.44a4.3683 4.3683 0 00.048-.7252v-.7342h1.548v.6705c.0435.6637-.1446 1.3225-.5352 1.8752-.3558.4429-.9615.6644-1.8525.6644-.8909 0-1.564-.2366-1.9454-.7282zM51.1856 21.3837c-.391-.4643-.5865-1.1409-.5865-2.036v-3.1373c0-.886.1955-1.5566.5865-2.0117.391-.4551 1.0448-.6817 1.9614-.6796.9102 0 1.5608.2265 1.9518.6796.391.4551.5897 1.1257.5897 2.0117v3.1373c0 .886-.1987 1.5657-.5961 2.0329-.3974.4673-1.0448.7009-1.9454.7009-.9006 0-1.5672-.2366-1.9614-.6978zm2.6825-.7525c.14-.2908.2038-.6093.1859-.9285v-3.8412a1.8428 1.8428 0 00-.1827-.9103.7378.7378 0 00-.3162-.2501.7844.7844 0 00-.4081-.0533.7944.7944 0 00-.4093.0539.7493.7493 0 00-.3182.2495 1.8019 1.8019 0 00-.1859.9103v3.8594a1.858 1.858 0 00.1859.9285.9595.9595 0 00.3265.2301c.1249.0537.2606.0815.3978.0815s.2729-.0278.3978-.0815a.9595.9595 0 00.3265-.2301v-.0182zM57.5505 13.6106h1.6666l1.2531 5.7886 1.282-5.7886h1.6217l.1635 8.3552h-1.1987l-.1282-5.8068-1.2371 5.8068h-.9615l-1.282-5.828-.1185 5.828h-1.2115l.1506-8.3552zM65.4061 13.6106h2.596c1.4956 0 2.2434.7908 2.2434 2.3725 0 1.5149-.7874 2.2713-2.362 2.2693h-.8846v3.7134h-1.6024l.0096-8.3552zm2.2178 3.5708c.1583.0191.3191.0053.4713-.0403a1.1163 1.1163 0 00.41-.2236c.1838-.2822.2648-.6136.2308-.9435a2.8586 2.8586 0 00-.0769-.7585.6331.6331 0 00-.118-.2292.672.672 0 00-.2025-.1682 1.529 1.529 0 00-.7147-.1335h-.6218v2.4968h.6218zM72.5559 13.6106h1.7211l1.7658 8.3552h-1.4934L74.2 20.0393h-1.5351l-.359 1.9265H70.79l1.7659-8.3552zm1.4711 5.4609l-.5993-3.5071-.5994 3.5071h1.1987zM77.469 13.6106h1.1218l2.1473 4.7662v-4.7662h1.33v8.3552h-1.0672l-2.1602-4.9755v4.9755h-1.3749l.0032-8.3552zM85.1836 18.7801l-1.7852-5.1578h1.5031l1.0897 3.3131 1.0224-3.3131h1.471l-1.7627 5.1578v3.1857h-1.5383v-3.1857zM47.2146 25.6189v.4369H45.907v3.3951h-.5481v-3.3951h-1.314v-.4369h3.1697zM51.3141 29.4512h-.4231a.1768.1768 0 01-.1186-.0364.1958.1958 0 01-.0705-.088l-.3781-.9102h-1.8141l-.3781.9102a.2578.2578 0 01-.0577.1032.1834.1834 0 01-.1186.0364h-.4231l1.6025-3.8319h.5577l1.6217 3.8167zm-2.6537-1.4229h1.5127l-.641-1.5595a2.9637 2.9637 0 01-.1186-.361c-.0224.0728-.0416.1426-.0609.2033l-.0576.1608-.6346 1.5564zM54.0766 29.0748c.1004.005.2009.005.3013 0a1.6469 1.6469 0 00.2564-.0455 1.82 1.82 0 00.2307-.0698c.0706-.0273.1411-.0607.2148-.094v-.8618h-.641a.1206.1206 0 01-.0865-.0303.0869.0869 0 01-.0321-.0698v-.2943h1.2435v1.4686a2.3546 2.3546 0 01-.3205.182 2.2193 2.2193 0 01-.3557.1305 2.6546 2.6546 0 01-.4006.0789 4.4587 4.4587 0 01-.468.0243 2.2523 2.2523 0 01-.8076-.1426 1.9365 1.9365 0 01-.641-.4006 1.849 1.849 0 01-.4134-.6068 2.0757 2.0757 0 01-.1474-.795 2.1551 2.1551 0 01.1442-.8011 1.759 1.759 0 01.4134-.6069 1.9111 1.9111 0 01.641-.3975 2.4746 2.4746 0 01.8589-.1426c.1492-.0002.2982.011.4455.0334.1303.0201.2581.0526.3814.0971a1.764 1.764 0 01.3205.1517c.0982.0599.1914.1268.2788.2003l-.1538.2367a.14.14 0 01-.052.0525.15.15 0 01-.073.0203.1963.1963 0 01-.0994-.0304 1.923 1.923 0 01-.157-.091 1.3721 1.3721 0 00-.2147-.1032 1.8732 1.8732 0 00-.2949-.0849 2.2546 2.2546 0 00-.407-.0334 1.7433 1.7433 0 00-.6186.1062 1.337 1.337 0 00-.4711.3034c-.1328.1378-.2343.3-.2981.4764a1.9544 1.9544 0 000 1.2775c.0702.1802.1794.3445.3205.4824.1315.1315.291.2349.468.3035a1.653 1.653 0 00.6345.0758zM59.1851 29.014h1.75v.4369h-2.2852v-3.832h.5481l-.0129 3.3951zM62.7556 29.4509h-.5481v-3.832h.5481v3.832zM64.7939 25.6371a.2683.2683 0 01.0833.0698l2.3428 2.8886a.9716.9716 0 010-.1365v-2.8552h.4775v3.8474h-.2756a.24.24 0 01-.1186-.0212.3138.3138 0 01-.0865-.0729l-2.3396-2.8855v2.9796h-.4583v-3.8323h.2853a.233.233 0 01.0897.0182zM71.7323 25.6189v.4217h-1.9422v1.2653h1.5736v.4065h-1.5736v1.3078h1.9422v.4217h-2.5062v-3.823h2.5062zM14.3035 1.954l24.335 6.5413v22.922l-24.335-6.5383V1.954zM12.7427 0v25.9925l27.4533 7.3818V7.3848L12.7427 0z" fill="#AFB1B8"/><path d="M27.4565 45.4402L0 38.0522V12.0625l27.4565 7.3849v25.9928z" fill="#AFB1B8"/><path d="M13.1978 1.6596l24.0177 6.4593-10.2141 9.6723-24.0208-6.4624 10.2172-9.6692zM12.7427 0L0 12.0631l27.4565 7.3847L40.196 7.3847 12.7427 0zM29.0015 43.978l11.1947-10.6006-11.1947-3.0127V43.978z" fill="#AFB1B8"/></svg>