<svg width="40" height="52" fill="none" xmlns="http://www.w3.org/2000/svg"><path d="M16.9769 2.9345h.1366c.253 0 .5262.0255.7969.0483a22.6245 22.6245 0 013.5416.534V.6535a21.0905 21.0905 0 00-3.6555-.5823C17.3285.0356 16.8302.0127 16.3192 0h-.4275a29.7934 29.7934 0 00-7.3362.946 29.727 29.727 0 00-7.784 3.1659v28.3967a31.6344 31.6344 0 017.4197-2.8913 32.3603 32.3603 0 016.2281-.9561h.0835a24.444 24.444 0 011.065-.0306v-2.909a34.3284 34.3284 0 00-8.095 1.0756c-.979.2543-1.9252.5289-2.8131.8341l-1.012.3433V5.8334l.4327-.2085a28.2754 28.2754 0 0110.516-2.6828.6267.6267 0 01.0911 0c.4022-.0203.807-.0305 1.2042-.0305h.4553c.21.0051.4199.0102.6299.023z" fill="#AFB1B8"/><path d="M24.111 5.9326c-.6653 0-1.323-.0229-1.958-.0712-.7589-.056-1.5381-.1475-2.2767-.2721a22.9777 22.9777 0 01-1.3231-.267v28.0712a22.4048 22.4048 0 005.5654.6561 29.9427 29.9427 0 007.3362-.9435 29.8136 29.8136 0 007.7865-3.1659V2.0496a31.7742 31.7742 0 01-7.4171 2.8938 31.4674 31.4674 0 01-7.7132.9892zm11.2244.4857l1.0119-.3408v22.1488l-.4326.2085a27.7612 27.7612 0 01-5.1733 1.8589 26.8823 26.8823 0 01-6.6203.8569c-.6678 0-1.3306-.0279-1.9731-.0839l-.6932-.061V8.2288l.807.0534c.5869.0382 1.194.056 1.8543.056A34.2634 34.2634 0 0032.5224 7.26a44.5509 44.5509 0 002.813-.8417zM2.7373 42.2124a1.4918 1.4918 0 00-.5148-.3478 1.4857 1.4857 0 00-.611-.1074 1.6726 1.6726 0 00-.6501.1221 1.501 1.501 0 00-.506.3331 1.4627 1.4627 0 00-.3263.5086 1.6503 1.6503 0 00-.1164.6281v3.794c-.009.2673.042.5333.1493.7781.0896.1944.2188.3677.3795.5086.1516.1277.3296.2197.521.2696.1846.0518.3752.0783.5667.0788a1.4194 1.4194 0 00.6122-.1322 1.5987 1.5987 0 00.506-.351 1.6479 1.6479 0 00.3314-.5086 1.5325 1.5325 0 00.1214-.6052v-.4246h-.9917v.3382a.8813.8813 0 01-.0581.3382.6084.6084 0 01-.1442.2136.6054.6054 0 01-.2075.1093.6973.6973 0 01-.2074.0356.5029.5029 0 01-.26-.0388.5064.5064 0 01-.2055-.1646.8987.8987 0 01-.1315-.5086v-3.5372a1.2078 1.2078 0 01.1214-.567.507.507 0 01.2102-.1845.5029.5029 0 01.2755-.0444.527.527 0 01.4427.2136.8065.8065 0 01.1644.5086v.328h.9816v-.3865a1.7883 1.7883 0 00-.1215-.6637 1.5619 1.5619 0 00-.3313-.534zM8.6287 42.1692a1.7659 1.7659 0 00-1.1283-.4171 1.7363 1.7363 0 00-.592.1068 1.6088 1.6088 0 00-.5236.3103 1.5584 1.5584 0 00-.3845.5314 1.7703 1.7703 0 00-.1442.7349v3.6389c-.0068.256.0424.5104.1442.7451.0897.1957.221.3693.3845.5086.1516.1408.3296.2497.5237.3204.1896.0698.39.106.592.1068a1.7119 1.7119 0 00.5919-.1068 1.6546 1.6546 0 00.5363-.3204 1.5524 1.5524 0 00.3744-.5086 1.7548 1.7548 0 00.1442-.7451v-3.6389a1.7705 1.7705 0 00-.1442-.7349 1.6415 1.6415 0 00-.3744-.5314zm-.463 4.9052a.6544.6544 0 01-.0391.2858.6507.6507 0 01-.1582.2406.726.726 0 01-.9334 0 .6508.6508 0 01-.1582-.2406.6544.6544 0 01-.0392-.2858v-3.6389a.6541.6541 0 01.0392-.2857.6508.6508 0 01.1582-.2406.726.726 0 01.4667-.1701.7261.7261 0 01.4667.1701c.07.0673.124.1495.1582.2406a.6541.6541 0 01.0391.2857v3.6389zM16.3675 48.6994v-6.8888h-.9537l-1.2522 3.6465h-.0177l-1.2623-3.6465h-.9436v6.8888h.9841v-4.1908h.0177l.9638 2.9625h.4908l.9714-2.9625h.0177v4.1908h.984zM21.9582 42.2937a1.3654 1.3654 0 00-.5566-.3764 2.1836 2.1836 0 00-.7133-.1068h-1.4622v6.8888h.9815v-2.6904h.506a1.7969 1.7969 0 00.8854-.1882 1.4306 1.4306 0 00.5388-.5264 1.649 1.649 0 00.2251-.6001 4.8994 4.8994 0 00.0532-.7832 3.9278 3.9278 0 00-.0962-.9841 1.4654 1.4654 0 00-.3617-.6332zm-.506 2.1004a.8682.8682 0 01-.091.3586.5524.5524 0 01-.253.2415 1.0058 1.0058 0 01-.4629.0865h-.4478v-2.342h.5059a.942.942 0 01.4427.0864.5562.5562 0 01.2302.2543c.0537.121.0829.2516.0861.384v.4577c0 .1602.0101.3255 0 .473h-.0102zM26.6074 41.8106h-.8044l-1.5178 6.8888h.9815l.2884-1.48h1.3382l.2884 1.48h.9815l-1.5558-6.8888zm-.9056 4.4704l.4832-2.4971h.0177l.4806 2.4971h-.9815zM32.9496 45.9606h-.0177l-1.4825-4.15h-.9435v6.8888h.9815V44.557h.0202l1.5002 4.1424h.9233v-6.8888h-.9815v4.15zM38.9476 41.8106l-.7893 2.7387h-.0202l-.7893-2.7387h-1.0397l1.3483 3.9771v2.9117h.9816v-2.9117l1.3483-3.9771h-1.0397zM0 50.6445h.473v1.3274h.3213v-1.3274h.4706v-.2721H0v.2721zM3.9767 50.3724l-.6198 1.5995h.3415l.1316-.3636h.6375l.1366.3636h.349l-.6349-1.5995h-.3415zm-.0506.9663l.2176-.5925.2175.5925h-.435zM7.908 51.3821h.3693v.206a.6127.6127 0 01-.3795.1348.4037.4037 0 01-.339-.1526.6688.6688 0 01-.1189-.417c0-.356.1543-.534.4604-.534a.3375.3375 0 01.2277.0598.3406.3406 0 01.134.1944l.3163-.061c-.0683-.3128-.2934-.4704-.678-.4704a.8044.8044 0 00-.559.206.7802.7802 0 00-.1827.2821.7843.7843 0 00-.0475.3332.8727.8727 0 00.2049.6002.7732.7732 0 00.6071.2339.9606.9606 0 00.678-.2543v-.6306h-.6932v.2695zM11.9224 50.3724h-.3238v1.5995h1.1207v-.2721h-.7969v-1.3274zM15.3175 50.3724h-.3238v1.5995h.3238v-1.5995zM18.6364 51.4405l-.6552-1.0681h-.3137v1.5995h.301v-1.0451l.6426 1.0451h.3212v-1.5995h-.2959v1.0681zM21.6368 51.2675h.7969v-.2721h-.7969v-.3509h.8576v-.2721H21.313v1.5995h1.2143v-.2721h-.8905v-.4323zM28.9121 51.0031h-.6299v-.6307h-.3213v1.5995h.3213v-.6993h.6299v.6993h.3213v-1.5995h-.3213v.6307zM31.9302 51.2675h.7994v-.2721h-.7994v-.3509h.8601v-.2721h-1.1814v1.5995h1.2117v-.2721h-.8904v-.4323zM36.0235 51.2677c.2783-.0433.4199-.1908.4199-.445a.3813.3813 0 00-.1568-.356.9032.9032 0 00-.468-.0941h-.678v1.5995h.3213v-.6688h.0632a.4291.4291 0 01.1999.0356.3335.3335 0 01.1138.1169l.3491.5086h.3845l-.1947-.3128a1.1132 1.1132 0 00-.3542-.3839zm-.3238-.2213h-.2378v-.4017h.253a.8372.8372 0 01.3263.0381.209.209 0 01-.0152.3255.9099.9099 0 01-.3263.0381zM39.1094 51.2675h.7969v-.2721h-.7969v-.3509h.8602v-.2721h-1.184v1.5995h1.2143v-.2721h-.8905v-.4323z" fill="#AFB1B8"/></svg>